PathFileType	4	(X/Y/Z)	RBDS015\RBDS015runT35.trc
DataRate	CameraRate	NumFrames	NumMarkers	Units	OrigDataRate	OrigDataStartFrame	OrigNumFrames
150.000000	150.000000	6	33	mm	150.000000	3937	4500
Frame#	Time	L.ASIS			L.Heel.Bottom			L.Heel.Lateral			L.Heel.Top			L.Iliac.Crest			L.MT1			L.MT5			L.PSIS			L.Shank.Bottom.Lateral			L.Shank.Bottom.Medial			L.Shank.Top.Lateral			L.Shank.Top.Medial			L.Thigh.Bottom.Lateral			L.Thigh.Bottom.Medial			L.Thigh.Top.Lateral			L.Thigh.Top.Medial			R.ASIS			R.ASY			R.Heel.Bottom			R.Heel.Lateral			R.Heel.Top			R.Iliac.Crest			R.MT1			R.MT5			R.PSIS			R.Shank.Bottom.Lateral			R.Shank.Bottom.Medial			R.Shank.Top.Lateral			R.Shank.Top.Medial			R.Thigh.Bottom.Lateral			R.Thigh.Bottom.Medial			R.Thigh.Top.Lateral			R.Thigh.Top.Medial			
		X1	Y1	Z1	X2	Y2	Z2	X3	Y3	Z3	X4	Y4	Z4	X5	Y5	Z5	X6	Y6	Z6	X7	Y7	Z7	X8	Y8	Z8	X9	Y9	Z9	X10	Y10	Z10	X11	Y11	Z11	X12	Y12	Z12	X13	Y13	Z13	X14	Y14	Z14	X15	Y15	Z15	X16	Y16	Z16	X17	Y17	Z17	X18	Y18	Z18	X19	Y19	Z19	X20	Y20	Z20	X21	Y21	Z21	X22	Y22	Z22	X23	Y23	Z23	X24	Y24	Z24	X25	Y25	Z25	X26	Y26	Z26	X27	Y27	Z27	X28	Y28	Z28	X29	Y29	Z29	X30	Y30	Z30	X31	Y31	Z31	X32	Y32	Z32	X33	Y33	Z33	

3938	26.24666666666667	2192.138843483587	1022.062091986582	931.9067298843922	2193.720462018321	28.91661292726251	1017.015760299277	2214.982751414077	46.57387176653697	973.8797350092	2203.342161854267	69.77571020805912	1018.570141112232	2104.616637510575	1100.752129232592	893.0784729337477	2407.090509457119	50.56717423669515	1038.727261540794	2367.479792301005	39.56659591871099	929.7806344220497	2018.857508796806	1062.624705849645	1018.730705148974	2271.051618999791	185.6646774101821	947.2795657349159	2225.575015581363	188.8498121326098	970.1560115203702	2271.403395572705	264.2909316583492	929.5538422094362	2224.923672032344	271.9078553733787	954.3340069311002	2251.281927521804	663.186309884214	895.2119766633245	2197.53404498447	634.172912808534	925.131425127653	2193.728858598628	756.611831995032	880.8821009443417	2137.619118054829	725.954880264264	914.6656285521635	2215.9518363702	1013.25685350624	1154.569866516819	1613.50345577102	263.5785069681006	1128.805085032443	1556.280205061574	445.5030221173323	1113.5695407957	1572.778832589351	419.1501807416446	1156.872042747018	1602.470084874798	436.9166291204508	1118.972837260055	2155.373701061872	1107.498847740929	1199.828776818985	1574.327768854683	235.4797673630521	1077.957591550538	1554.112625227244	274.3470388814489	1188.018383461805	2033.259762967858	1063.856543093465	1110.185561954465	1709.112664266166	396.5368248731246	1176.149058216642	1694.326155849889	444.6047598082519	1152.199451255687	1783.595769781687	427.4302001522083	1188.200118050036	1768.133554233111	473.3300442547495	1164.439745909904	2076.819520582075	650.4865526046483	1210.270040093243	2018.917101183229	655.2635184516041	1166.153102169234	2076.066160074591	759.6848885874472	1218.079969122267	2020.770646537864	764.7785190739605	1176.475870654203	
3939	26.25333333333333	2189.925267738482	1016.081514891979	932.0775404617087	2170.864713060789	30.20342026737991	1017.71696585863	2192.680976147135	48.17959792135257	974.970983673922	2181.889557344008	70.89931290907163	1020.178002929807	2102.090993691858	1091.693345946381	893.3786355048489	2385.555083577208	46.24281251034569	1039.747652859683	2345.187632081682	38.22484524000264	930.4851146255869	2016.681599136786	1056.563143494891	1019.779788069279	2257.254926557571	184.4904601003651	948.7974790942185	2211.319768244083	189.9071469188975	970.4430809516771	2261.692154008258	262.9712765625607	930.609374672571	2214.889191286898	272.8270302406273	954.100138143829	2251.087114573987	659.6938169795468	894.8877326361438	2197.49106827222	630.4663976529845	924.9052436912962	2193.15757205204	752.9067686762361	880.6024817183122	2137.1827189087	721.9895750471869	914.4153520791338	2214.403276857044	1007.527491744062	1154.884890074259	1623.139981106422	265.672336905001	1129.167210090689	1566.746654045913	447.9256684476141	1114.191521363421	1583.31934694112	421.5160780479285	1157.431636416795	1612.908663789711	439.1132829079983	1119.366330863687	2153.018543314447	1099.457224195809	1200.622023729996	1583.505643667823	237.7348580688271	1078.568665225115	1564.078306265706	276.7945270934947	1188.740163498725	2031.061496828082	1056.985523267572	1110.897540216907	1719.616621187467	396.5372666981684	1176.540652377018	1705.969405608505	445.0260308094127	1152.86186073276	1794.689176028818	425.7611496373701	1189.03430005274	1780.325581186127	472.0791075609812	1165.477478996856	2084.425048266179	643.4536329465118	1211.745174947481	2026.026968833849	646.4448448780781	1168.068864078213	2080.637394514218	752.7236251764789	1219.374986808036	2025.007908827886	756.1016401253398	1178.0042323708	
3940	26.26	2187.516542247212	1010.329525671156	932.1328551038272	2147.842428601361	31.44174268203416	1018.3641136981	2170.075337752315	49.82684411891567	975.990211590297	2159.913407235289	71.988449347714	1021.654874796206	2099.688862714982	1082.907200017302	893.5531560914085	2363.332548665575	43.45785947519258	1040.661434754822	2322.446784036317	37.84579731309308	931.1904044290044	2014.45525833276	1051.114365967459	1020.858337317515	2242.314897853798	183.6923961735984	950.2547794133906	2196.115776722427	191.2716736732202	970.8314346538718	2250.682940763462	261.8722700477377	931.6796367316209	2203.744435132207	273.892667952389	954.0343785104097	2249.838142129649	656.177095954033	894.6211110621473	2196.304533345165	626.9188172902335	924.7573171322881	2191.825466128836	749.3433612209024	880.3384096769815	2135.902127962503	718.36824813855	914.2210365063239	2212.658789282656	1001.598208419467	1155.129944168894	1634.253139989636	267.001414764394	1129.469704810966	1577.859474814208	449.3297311372355	1114.832029357822	1594.67409709176	422.9314142815799	1157.984658198126	1624.028568129966	440.4822649635328	1119.694534928564	2150.588670195649	1091.36500291962	1201.435734311794	1594.206060888137	239.0529805001487	1079.18726916599	1575.543478113968	278.2256825195618	1189.4799100595	2028.731940524117	1050.75190988968	1111.612519614406	1731.089708321246	396.0349706720222	1176.849632330134	1718.43023277482	444.9158041406856	1153.505072697101	1806.652321715223	423.7835241792422	1189.766976915326	1793.242351821908	470.4884699054341	1166.468350517926	2092.492076661138	636.9126934387988	1213.280750833095	2033.562742836742	637.9961702375264	1170.165373711259	2085.500147697736	746.1556445255289	1220.713851866861	2029.517320243377	747.687163408803	1179.670216767103	
3941	26.26666666666667	2184.962244749122	1004.915509032644	932.0479392791699	2124.747628770469	32.52440554349864	1018.937545199842	2147.265395725468	51.35706645665293	976.8976148991264	2137.536681032815	72.94469258523861	1022.94569046232	2097.410793689789	1074.673187365605	893.5774306582111	2340.606792825979	41.95572025890652	1041.417496014991	2299.395880823306	38.1480303080567	931.8435975083405	2012.216514795572	1046.376718940797	1021.923110823362	2226.205179521314	183.0741625376843	951.5871194978902	2179.944772711623	192.7066158314833	971.3008298868681	2238.267659951732	260.8157213272074	932.7165451660135	2191.392185493457	274.8872496669562	954.1376838779843	2247.38911186398	652.5944308190363	894.4559597225467	2193.797028106304	623.5189389905421	924.7031276833545	2189.653733823458	745.9168579400158	880.1321617605942	2133.670214374713	715.1236390484546	914.1061344363148	2210.732946126755	995.5720644362746	1155.327529378301	1646.790865533749	267.5329865051726	1129.660334091054	1589.55230681106	449.6915319131212	1115.501494621936	1606.772135790919	423.3578686345311	1158.536704900816	1635.766422659913	440.9981759806419	1119.977638811676	2148.056663167972	1083.474920441853	1202.247662174818	1606.379903215787	239.4155804189333	1079.738728982497	1588.435619238786	278.5818151370125	1190.172021879955	2026.309364057902	1045.297997824016	1112.298968575358	1743.491517692406	395.0450080068064	1177.077650173719	1731.635229839904	444.2928264774045	1154.130443277566	1819.445850606322	421.5507848201974	1190.38822199943	1806.81490695543	468.6138321952559	1167.401977803226	2101.004029851157	631.0429597556538	1214.868894949114	2041.557522713543	630.0880644056133	1172.401540480225	2090.648084947264	740.1372293306546	1222.067754363251	2034.310168425037	739.6852337897773	1181.454141843928	
3942	26.27333333333333	2182.326394150777	999.9304506434213	931.8234855411025	2101.615648875839	33.37663050801221	1019.419462570852	2124.302215532879	52.64834812715164	977.6601878542041	2114.843030567526	73.69915092223582	1024.009528415511	2095.264295715654	1067.27150770888	893.4451923501092	2317.522069476314	41.41756284393808	1041.987295504267	2276.130411719626	38.84783840711638	932.4012500249875	2010.005932420552	1042.424137849009	1022.911647061062	2208.940151533711	182.4537036520242	952.745048538436	2162.80789601606	194.0002085564794	971.8159735294938	2224.404884648871	259.6442403213807	933.6771230619368	2177.779972297982	275.6246302940882	954.3842840750912	2243.643931448718	648.9166993954207	894.4143420832087	2189.852322836823	620.2584995766571	924.7414542584426	2186.594163896687	742.6213888613187	880.0077235141936	2130.420521115442	712.2751124260831	914.0781082438386	2208.643848133603	989.5853666196062	1155.506449560219	1660.684599329911	267.2367916794228	1129.691972876017	1601.753876462181	448.97541974035	1116.202403235155	1619.531787238714	422.7506683477823	1159.087576516426	1648.049998841061	440.6255421907454	1120.234128215773	2145.408786659907	1076.065355605363	1203.026846660179	1619.97291029129	238.8059670658282	1080.149198558717	1602.667258694353	277.8097098557382	1190.750309603403	2023.833888666623	1040.730148997477	1112.913051327866	1756.759445428271	393.5838898855105	1177.227760970311	1745.490827449418	443.1722460878278	1154.73286616335	1833.005632186334	419.1206424781192	1190.892347511391	1820.951288273429	466.5100848317816	1168.264455790235	2109.915975293561	626.0193647431825	1216.49643257068	2050.017153450474	622.8899549601012	1174.730288887946	2096.054686995101	734.8222826298543	1223.403035162109	2039.379337941199	732.2483728382795	1183.330773784481	
3943	26.28	2179.684246285262	995.4458831721222	931.4832873887593	2078.441682560722	33.96121318181511	1019.797885976759	2101.203206947089	53.62649701211382	978.2566409811112	2091.885851403179	74.21760745706268	1024.824830144664	2093.270870524956	1060.956551018231	893.1701644434223	2294.184858767404	41.51274314008239	1042.364965354196	2252.710711357147	39.69487131045757	932.8340962672033	2007.863869209111	1039.303381179682	1023.747222797575	2190.581127571596	181.693094807802	953.698347045426	2144.735394066546	194.996477425923	972.3323697609753	2209.127195635713	258.2480041635892	934.5278348945595	2162.910255092849	275.9776406293684	954.7273547144122	2238.566775095911	645.1413723063843	894.4945286790841	2184.427305524899	617.1431450337842	924.8523520373494	2182.634640567881	739.4607304188221	879.9693803373594	2126.134294281529	709.8357895642529	914.1264767637801	2206.412829588582	983.8083965792406	1155.695546539421	1675.850504850337	266.0880318971663	1129.527423044582	1614.388809259603	447.1338227583041	1116.924360246554	1632.862034364676	421.0610476486463	1159.627135005393	1660.798693845956	439.3202702875495	1120.475343608285	2142.649552770623	1069.418434986779	1203.737317561291	1634.929075274365	237.2098032281562	1080.352696477177	1618.140350414123	275.8668993334764	1191.153363751839	2021.344093528836	1037.112639980487	1113.400748578136	1770.807424731488	391.6696775281751	1177.302783098322	1759.884155644554	441.5651659416953	1155.298544101368	1847.241220716306	416.5531857966564	1191.276701032656	1835.536515547319	464.2291489491705	1169.037139025193	2119.153522971226	622.0019749854845	1218.145134057015	2058.912010176796	616.561605334352	1177.104182330811	2101.671168165399	730.3536927197778	1224.683900091799	2044.695589878462	725.5241588786305	1185.270495354355	
